<svg id="Layer_1" data-name="Layer 1" xmlns="http://www.w3.org/2000/svg" viewBox="0 0 52.62 52.62"><defs><style>.cls-1{fill:#fff;}.cls-2{fill:#5722cd;}</style></defs><path class="cls-1" d="M52.62,26.25v.05h0a26.28,26.28,0,1,1,0-.06Z"/><g id="Laag_2-2-2" data-name="Laag 2-2-2"><g id="Laag_1-2-2-2" data-name="Laag 1-2-2-2"><path class="cls-2" d="M26.31,0A26.31,26.31,0,1,0,52.62,26.31h0v-.05A26.31,26.31,0,0,0,26.31,0Zm-.09,41.83V42a4,4,0,0,1-3.8-2.26L15.71,26.2l-1.5,2.33-2.29,3.63a4.56,4.56,0,0,1-5.39,1.53,3.73,3.73,0,0,1-1.77-1.23,1.84,1.84,0,0,1,0-2.1l.71-1.1,2.84-4.4,4.9-7.61a4.65,4.65,0,0,1,1.25-1.17l0,0,0,0,.19-.13h0l0,0a4.59,4.59,0,0,1,2.08-.5,4.64,4.64,0,0,1,1.68.32,3.91,3.91,0,0,1,1.81,1.23,3.19,3.19,0,0,1,.23.45l5.74,11.9L35.1,13.05a4,4,0,0,1,7.08,3.87L29.68,39.83A4,4,0,0,1,26.22,41.83ZM46.6,31.33A4,4,0,0,1,42,34.74a0,0,0,0,1,0,0h-.07a4.06,4.06,0,1,1,4.69-3.4Z"/><path class="cls-2" d="M14.72,15.9l-.31.2.35-.19Z"/></g></g></svg>